<svg width="89" height="94" viewBox="0 0 89 94" fill="none" xmlns="http://www.w3.org/2000/svg">
<g clip-path="url(#clip0_301_3)">
<path d="M21.0039 12C32.6038 23.7334 42.803 36.4287 53.6533 48.8306C61.1731 57.4257 70.1299 64.1192 78.0039 72" stroke="#FFF27D" stroke-width="14" stroke-linecap="round"/>
<path d="M77.0039 8C60.8587 38.7584 32.7537 59.6926 12.0039 87" stroke="#FFF27D" stroke-width="14" stroke-linecap="round"/>
<path d="M23.1524 25.9549C23.3897 25.9727 23.4617 26.6029 23.3684 27.8454C23.2761 29.0739 23.1113 29.6793 22.8739 29.6614L19.0417 29.3736L18.8624 31.7608L21.4172 31.9527C21.6545 31.9706 21.7323 32.524 21.6505 33.6129C21.5698 34.6879 21.4177 35.217 21.1943 35.2002L18.6186 35.0067L18.2395 40.0535C18.2248 40.2489 17.9501 40.3547 17.4154 40.3706C16.8936 40.4016 16.4582 40.404 16.1092 40.3778L15.1281 40.262C14.4504 40.1269 14.1188 39.9616 14.1335 39.7661L15.1748 25.9032C15.1916 25.6798 15.2445 25.5364 15.3335 25.4728C15.4365 25.4104 15.5787 25.386 15.7602 25.3996L23.1524 25.9549ZM30.3005 41.4438C28.346 41.297 26.7958 40.5347 25.6497 39.157C24.5177 37.7804 24.0439 35.8635 24.2285 33.4064C24.4141 30.9354 25.1759 29.1113 26.5138 27.9342C27.8657 26.7582 29.5259 26.2441 31.4943 26.3919C33.4767 26.5409 35.028 27.2892 36.1482 28.6369C37.2695 29.9706 37.7347 31.9079 37.5438 34.4487C37.354 36.9756 36.5912 38.8136 35.2554 39.9628C33.9206 41.098 32.269 41.5917 30.3005 41.4438ZM31.1504 30.4095C30.4803 30.3591 29.8918 30.6238 29.385 31.2035C28.8921 31.7842 28.6037 32.633 28.5198 33.7498C28.437 34.8527 28.5894 35.7206 28.9771 36.3534C29.3658 36.9722 29.9092 37.3079 30.6073 37.3603C31.3192 37.4138 31.9142 37.1566 32.3921 36.5888C32.8839 36.0221 33.1718 35.1803 33.2556 34.0634C33.3395 32.9466 33.1737 32.0707 32.7581 31.4358C32.3564 30.8019 31.8205 30.4598 31.1504 30.4095ZM45.0062 42.0009C44.9852 42.2801 44.2837 42.3678 42.9016 42.264C41.5195 42.1602 40.8389 41.9687 40.8599 41.6894L41.6495 31.1771L39.1366 30.9883C38.8992 30.9705 38.7558 30.6368 38.7064 29.9873C38.6875 29.677 38.6902 29.3613 38.7143 29.0402C38.7384 28.7191 38.783 28.4066 38.8479 28.1026C38.9939 27.4677 39.1855 27.1592 39.4229 27.177L48.5322 27.8613C48.7695 27.8791 48.9129 28.2128 48.9624 28.8623C48.9812 29.1726 48.9786 29.4883 48.9545 29.8094C48.9303 30.1305 48.8858 30.443 48.8209 30.747C48.6749 31.3819 48.4832 31.6904 48.2459 31.6725L45.7958 31.4885L45.0062 42.0009ZM55.3929 43.3286C53.4384 43.1818 51.8882 42.4196 50.7421 41.0418C49.6101 39.6652 49.1363 37.7483 49.3209 35.2912C49.5065 32.8202 50.2683 30.9961 51.6062 29.819C52.9581 28.643 54.6183 28.1289 56.5867 28.2768C58.5691 28.4257 60.1204 29.174 61.2406 30.5217C62.3619 31.8554 62.8271 33.7927 62.6362 36.3335C62.4464 38.8604 61.6836 40.6984 60.3478 41.8476C59.013 42.9828 57.3614 43.4765 55.3929 43.3286ZM56.2428 32.2943C55.5727 32.244 54.9842 32.5086 54.4774 33.0883C53.9845 33.669 53.6961 34.5178 53.6122 35.6346C53.5294 36.7375 53.6818 37.6054 54.0695 38.2382C54.4582 38.8571 55.0016 39.1927 55.6997 39.2451C56.4116 39.2986 57.0066 39.0415 57.4845 38.4737C57.9763 37.9069 58.2641 37.0651 58.348 35.9483C58.4319 34.8314 58.2661 33.9555 57.8505 33.3206C57.4488 32.6867 56.9129 32.3446 56.2428 32.2943ZM64.6984 38.6786C64.948 38.9079 65.3802 39.2282 65.9951 39.6394C66.624 40.0517 67.2316 40.2798 67.818 40.3239C68.4183 40.369 68.7357 40.1612 68.7703 39.7005C68.7861 39.4911 68.7159 39.3033 68.5599 39.1371C68.405 38.957 68.112 38.7455 67.681 38.5025C67.25 38.2595 66.927 38.0738 66.712 37.9454C66.4981 37.8029 66.2126 37.5849 65.8556 37.2914C65.5136 36.9849 65.2559 36.6777 65.0824 36.3699C64.5838 35.5322 64.3806 34.499 64.4729 33.2705C64.5652 32.042 65.0965 31.043 66.0669 30.2735C67.0522 29.4911 68.2848 29.1555 69.7647 29.2666C70.7698 29.3421 71.6898 29.5236 72.5247 29.8109C73.3605 30.0843 73.7793 30.3965 73.781 30.7476C73.7779 30.7895 73.7747 30.8314 73.7716 30.8733C73.7349 31.3619 73.5346 31.9716 73.1709 32.7024C72.8082 33.4193 72.5608 33.8149 72.4289 33.8892C71.57 33.3614 70.7846 33.0707 70.0726 33.0172C69.3746 32.9648 69.0067 33.1899 68.9689 33.6925C68.9458 33.9996 69.1837 34.2912 69.6824 34.5674C69.7899 34.6316 69.9447 34.7204 70.1467 34.8339C70.3488 34.9474 70.5772 35.0838 70.832 35.2434C71.1018 35.39 71.3823 35.5795 71.6738 35.812C71.9802 36.0316 72.3023 36.3225 72.6401 36.6849C73.3276 37.4385 73.6283 38.3877 73.5423 39.5324C73.4301 41.0262 72.9265 42.2169 72.0315 43.1043C71.1365 43.9918 69.8294 44.385 68.1102 44.2839C67.2725 44.221 66.5169 44.094 65.8433 43.903C65.1837 43.7131 64.6178 43.3968 64.1456 42.9542C63.6734 42.5116 63.4589 42.0041 63.5019 41.4317C63.5449 40.8593 63.692 40.3018 63.9434 39.7591C64.1958 39.2024 64.4475 38.8423 64.6984 38.6786ZM16.4434 63.9651C16.4266 64.1885 15.7551 64.2504 14.4288 64.1507C13.0886 64.0501 12.4263 63.895 12.4421 63.6856L13.4677 50.0321C13.5044 49.5435 13.781 49.3185 14.2975 49.3573L18.2973 49.6578C21.9689 49.9336 23.6973 51.5025 23.4823 54.3644C23.4173 55.23 23.1905 56.0061 22.802 56.693C22.4145 57.3658 21.8979 57.8886 21.2521 58.2613L23.5604 62.8571C23.4235 63.1838 23.0317 63.5404 22.3849 63.9271C21.5022 64.4644 20.7886 64.7127 20.2441 64.6718C19.6997 64.6309 19.3095 64.405 19.0736 63.9942L17.4496 59.2603L16.8004 59.2115L16.4434 63.9651ZM17.244 53.3061L17.0081 56.4473L17.1128 56.4552C18.439 56.5548 19.1436 56.0531 19.2264 54.9503C19.2642 54.4477 19.1594 54.0678 18.9119 53.8105C18.6795 53.5403 18.2701 53.3832 17.6838 53.3392L17.244 53.3061ZM30.9773 65.5623C29.0228 65.4154 27.4725 64.6532 26.3265 63.2755C25.1945 61.8988 24.7207 59.9819 24.9053 57.5249C25.0909 55.0538 25.8527 53.2298 27.1906 52.0527C28.5425 50.8766 30.2026 50.3625 32.1711 50.5104C34.1535 50.6593 35.7048 51.4076 36.825 52.7553C37.9463 54.089 38.4115 56.0263 38.2206 58.5672C38.0308 61.094 37.268 62.9321 35.9321 64.0812C34.5974 65.2164 32.9457 65.7101 30.9773 65.5623ZM31.8272 54.5279C31.1571 54.4776 30.5686 54.7422 30.0618 55.3219C29.5689 55.9026 29.2805 56.7514 29.1966 57.8683C29.1138 58.9712 29.2662 59.839 29.6539 60.4718C30.0426 61.0907 30.586 61.4263 31.284 61.4788C31.996 61.5322 32.591 61.2751 33.0688 60.7073C33.5607 60.1405 33.8485 59.2987 33.9324 58.1819C34.0163 57.065 33.8505 56.1891 33.4348 55.5542C33.0332 54.9204 32.4973 54.5783 31.8272 54.5279ZM46.4589 51.5836C47.478 51.6602 48.3605 51.8739 49.1063 52.2247C49.8672 52.5627 50.2292 52.976 50.1925 53.4646C50.1558 53.9532 49.9217 54.5463 49.4903 55.244C49.0738 55.9287 48.7399 56.2616 48.4886 56.2428C48.4188 56.2375 48.3377 56.1963 48.2452 56.1192C48.1677 56.0291 47.9646 55.9296 47.6358 55.8207C47.3221 55.6988 47.0465 55.629 46.8092 55.6112C45.9995 55.5504 45.3218 55.7873 44.7763 56.3219C44.2447 56.8576 43.9343 57.7188 43.8451 58.9054C43.757 60.0781 43.9428 60.9695 44.4024 61.5797C44.8759 62.1909 45.5036 62.5258 46.2854 62.5845C46.6065 62.6087 46.9656 62.5935 47.3628 62.5391C47.775 62.4718 48.0712 62.3607 48.2513 62.2057C48.2813 62.1799 48.3382 62.1701 48.422 62.1764C48.5057 62.1827 48.6473 62.3548 48.8465 62.6927C49.0608 63.0176 49.2462 63.4457 49.4029 63.977C49.5606 64.4942 49.6289 64.8925 49.608 65.1717C49.5671 65.7161 49.1157 66.1175 48.254 66.3756C47.3922 66.6338 46.3889 66.7199 45.2442 66.6339C43.4014 66.4955 41.9354 65.7325 40.8463 64.3451C39.7571 62.9576 39.3012 61.0842 39.4784 58.7248C39.6567 56.3515 40.404 54.5334 41.7203 53.2704C43.0505 52.0085 44.6301 51.4463 46.4589 51.5836ZM55.3032 66.8841C55.2874 67.0935 54.6234 67.1489 53.3111 67.0503L52.1431 66.8994C51.4493 66.7912 51.1076 66.6672 51.1181 66.5276L52.1736 52.4762C52.1914 52.2389 52.8984 52.1726 54.2944 52.2775C55.6905 52.3824 56.3796 52.5535 56.3618 52.7908L55.9591 58.1517L58.9166 52.9827C59.029 52.7946 59.5948 52.7388 60.6139 52.8154C62.4707 52.9548 63.4359 53.1888 63.5095 53.5172C63.5074 53.5451 63.4983 53.5725 63.4822 53.5994L59.3446 59.9012L63.1358 66.0615C63.1337 66.0894 62.9922 66.1981 62.7112 66.3876C62.027 66.8978 61.2401 67.2809 60.3504 67.537C60.0779 67.6148 59.8089 67.6437 59.5437 67.6238L59.0442 67.5442C58.6059 67.3989 58.2784 67.0865 58.0617 66.6069L56.0173 61.8625L55.6823 61.8373L55.3032 66.8841ZM65.0071 62.7694C65.2566 62.9987 65.6888 63.319 66.3038 63.7302C66.9327 64.1425 67.5403 64.3706 68.1266 64.4147C68.7269 64.4598 69.0444 64.252 69.079 63.7913C69.0947 63.5819 69.0246 63.3941 68.8686 63.2279C68.7137 63.0478 68.4207 62.8363 67.9897 62.5933C67.5587 62.3503 67.2357 62.1646 67.0207 62.0362C66.8067 61.8937 66.5213 61.6757 66.1643 61.3822C65.8223 61.0757 65.5645 60.7685 65.3911 60.4607C64.8925 59.623 64.6893 58.5898 64.7816 57.3613C64.8738 56.1328 65.4052 55.1338 66.3755 54.3643C67.3609 53.5819 68.5935 53.2463 70.0733 53.3574C71.0785 53.4329 71.9985 53.6144 72.8333 53.9017C73.6692 54.1751 74.088 54.4873 74.0897 54.8384C74.0865 54.8803 74.0834 54.9222 74.0802 54.9641C74.0435 55.4527 73.8433 56.0624 73.4795 56.7932C73.1168 57.5101 72.8695 57.9057 72.7376 57.98C71.8787 57.4522 71.0933 57.1615 70.3813 57.108C69.6832 57.0556 69.3153 57.2807 69.2776 57.7833C69.2545 58.0904 69.4923 58.382 69.9911 58.6582C70.0985 58.7224 70.2533 58.8112 70.4554 58.9247C70.6575 59.0381 70.8859 59.1746 71.1406 59.3342C71.4104 59.4808 71.691 59.6703 71.9824 59.9028C72.2888 60.1224 72.6109 60.4133 72.9488 60.7757C73.6362 61.5293 73.937 62.4785 73.851 63.6232C73.7388 65.117 73.2352 66.3077 72.3402 67.1951C71.4452 68.0826 70.1381 68.4758 68.4188 68.3747C67.5812 68.3118 66.8256 68.1848 66.152 67.9938C65.4924 67.8039 64.9265 67.4876 64.4543 67.045C63.9821 66.6024 63.7675 66.0949 63.8105 65.5225C63.8535 64.9501 64.0007 64.3926 64.252 63.8499C64.5045 63.2932 64.7561 62.9331 65.0071 62.7694Z" fill="black"/>
</g>
<defs>
<clipPath id="clip0_301_3">
<rect width="89" height="94" fill="white"/>
</clipPath>
</defs>
</svg>
